<svg xmlns="http://www.w3.org/2000/svg" viewBox="0 0 200 200" width="200" height="200">
  <!-- Background circle -->
  <circle cx="100" cy="100" r="95" fill="#1a1a2e" stroke="#4A90D9" stroke-width="3"/>
  
  <!-- Hair - white/silver spiky -->
  <ellipse cx="100" cy="65" rx="55" ry="45" fill="#e8e8f0"/>
  <path d="M50 70 Q55 30 75 50 Q80 25 95 45 Q100 20 110 40 Q120 22 130 48 Q140 28 145 55 Q155 35 150 70" fill="#e8e8f0"/>
  
  <!-- Face -->
  <ellipse cx="100" cy="95" rx="42" ry="38" fill="#fce4d6"/>
  
  <!-- Blindfold -->
  <rect x="55" y="80" width="90" height="18" rx="9" fill="#2a2a3e"/>
  <rect x="55" y="80" width="90" height="18" rx="9" fill="none" stroke="#4A90D9" stroke-width="1.5"/>
  
  <!-- Smirk/Grin -->
  <path d="M80 108 Q100 122 120 108" fill="none" stroke="#c96b5a" stroke-width="2.5" stroke-linecap="round"/>
  
  <!-- Collar/uniform hint -->
  <path d="M65 128 Q100 145 135 128" fill="#1a1a4e" stroke="#4A90D9" stroke-width="1"/>
  <path d="M75 130 L100 142 L125 130" fill="none" stroke="#4A90D9" stroke-width="1.5"/>
  
  <!-- Six Eyes glow effect behind blindfold -->
  <circle cx="85" cy="89" r="4" fill="#4A90D9" opacity="0.6"/>
  <circle cx="115" cy="89" r="4" fill="#6C3CE1" opacity="0.6"/>
  <circle cx="85" cy="89" r="8" fill="none" stroke="#4A90D9" opacity="0.3" stroke-width="1"/>
  <circle cx="115" cy="89" r="8" fill="none" stroke="#6C3CE1" opacity="0.3" stroke-width="1"/>
</svg>
